<?xml version="1.0" encoding="UTF-8" standalone="no"?>
<!-- Created with Inkscape (http://www.inkscape.org/) -->

<svg
   width="64"
   height="64"
   viewBox="0 0 64 64"
   version="1.1"
   id="svg1"
   inkscape:export-filename="UniformConstant.svg"
   inkscape:export-xdpi="96"
   inkscape:export-ydpi="96"
   xmlns:inkscape="http://www.inkscape.org/namespaces/inkscape"
   xmlns:sodipodi="http://sodipodi.sourceforge.net/DTD/sodipodi-0.dtd"
   xmlns="http://www.w3.org/2000/svg"
   xmlns:svg="http://www.w3.org/2000/svg">
  <sodipodi:namedview
     id="namedview1"
     pagecolor="#ffffff"
     bordercolor="#000000"
     borderopacity="0.25"
     inkscape:showpageshadow="2"
     inkscape:pageopacity="0.0"
     inkscape:pagecheckerboard="true"
     inkscape:deskcolor="#d1d1d1"
     inkscape:document-units="px"
     showguides="true"
     inkscape:lockguides="false">
    <sodipodi:guide
       position="-25.939439,58"
       orientation="0,1"
       id="guide1"
       inkscape:locked="false"
       inkscape:label=""
       inkscape:color="rgb(0,134,229)" />
    <sodipodi:guide
       position="6,34.604447"
       orientation="-1,0"
       id="guide2"
       inkscape:locked="false"
       inkscape:label=""
       inkscape:color="rgb(0,134,229)" />
    <sodipodi:guide
       position="58,32.374696"
       orientation="-1,0"
       id="guide3"
       inkscape:locked="false"
       inkscape:label=""
       inkscape:color="rgb(0,134,229)" />
    <sodipodi:guide
       position="29.915829,6"
       orientation="0,1"
       id="guide4"
       inkscape:locked="false"
       inkscape:label=""
       inkscape:color="rgb(0,134,229)" />
  </sodipodi:namedview>
  <defs
     id="defs1">
    <marker
       style="overflow:visible"
       id="marker5"
       refX="0"
       refY="0"
       orient="auto"
       inkscape:stockid="Dot"
       markerWidth="0.30000001"
       markerHeight="0.30000001"
       viewBox="0 0 1 1"
       inkscape:isstock="true"
       inkscape:collect="always"
       preserveAspectRatio="xMidYMid">
      <path
         transform="scale(0.5)"
         style="fill:context-stroke;fill-rule:evenodd;stroke:none"
         d="M 5,0 C 5,2.76 2.76,5 0,5 -2.76,5 -5,2.76 -5,0 c 0,-2.76 2.3,-5 5,-5 2.76,0 5,2.24 5,5 z"
         sodipodi:nodetypes="sssss"
         id="path5" />
    </marker>
    <marker
       style="overflow:visible"
       id="Dot"
       refX="0"
       refY="0"
       orient="auto"
       inkscape:stockid="Dot"
       markerWidth="0.30000001"
       markerHeight="0.30000001"
       viewBox="0 0 1 1"
       inkscape:isstock="true"
       inkscape:collect="always"
       preserveAspectRatio="xMidYMid">
      <path
         transform="scale(0.5)"
         style="fill:context-stroke;fill-rule:evenodd;stroke:none"
         d="M 5,0 C 5,2.76 2.76,5 0,5 -2.76,5 -5,2.76 -5,0 c 0,-2.76 2.3,-5 5,-5 2.76,0 5,2.24 5,5 z"
         sodipodi:nodetypes="sssss"
         id="path17" />
    </marker>
    <marker
       style="overflow:visible"
       id="Dot-4"
       refX="0"
       refY="0"
       orient="auto"
       inkscape:stockid="Dot"
       markerWidth="0.30000001"
       markerHeight="0.30000001"
       viewBox="0 0 1 1"
       inkscape:isstock="true"
       inkscape:collect="always"
       preserveAspectRatio="xMidYMid">
      <path
         transform="scale(0.5)"
         style="fill:context-stroke;fill-rule:evenodd;stroke:none"
         d="M 5,0 C 5,2.76 2.76,5 0,5 -2.76,5 -5,2.76 -5,0 c 0,-2.76 2.3,-5 5,-5 2.76,0 5,2.24 5,5 z"
         sodipodi:nodetypes="sssss"
         id="path17-9" />
    </marker>
    <marker
       style="overflow:visible"
       id="Dot-48"
       refX="0"
       refY="0"
       orient="auto"
       inkscape:stockid="Dot"
       markerWidth="0.30000001"
       markerHeight="0.30000001"
       viewBox="0 0 1 1"
       inkscape:isstock="true"
       inkscape:collect="always"
       preserveAspectRatio="xMidYMid">
      <path
         transform="scale(0.5)"
         style="fill:context-stroke;fill-rule:evenodd;stroke:none"
         d="M 5,0 C 5,2.76 2.76,5 0,5 -2.76,5 -5,2.76 -5,0 c 0,-2.76 2.3,-5 5,-5 2.76,0 5,2.24 5,5 z"
         sodipodi:nodetypes="sssss"
         id="path17-5" />
    </marker>
    <marker
       style="overflow:visible"
       id="Dot-4-5"
       refX="0"
       refY="0"
       orient="auto"
       inkscape:stockid="Dot"
       markerWidth="0.30000001"
       markerHeight="0.30000001"
       viewBox="0 0 1 1"
       inkscape:isstock="true"
       inkscape:collect="always"
       preserveAspectRatio="xMidYMid">
      <path
         transform="scale(0.5)"
         style="fill:context-stroke;fill-rule:evenodd;stroke:none"
         d="M 5,0 C 5,2.76 2.76,5 0,5 -2.76,5 -5,2.76 -5,0 c 0,-2.76 2.3,-5 5,-5 2.76,0 5,2.24 5,5 z"
         sodipodi:nodetypes="sssss"
         id="path17-9-7" />
    </marker>
    <marker
       style="overflow:visible"
       id="Dot-0"
       refX="0"
       refY="0"
       orient="auto"
       inkscape:stockid="Dot"
       markerWidth="0.30000001"
       markerHeight="0.30000001"
       viewBox="0 0 1 1"
       inkscape:isstock="true"
       inkscape:collect="always"
       preserveAspectRatio="xMidYMid">
      <path
         transform="scale(0.5)"
         style="fill:context-stroke;fill-rule:evenodd;stroke:none"
         d="M 5,0 C 5,2.76 2.76,5 0,5 -2.76,5 -5,2.76 -5,0 c 0,-2.76 2.3,-5 5,-5 2.76,0 5,2.24 5,5 z"
         sodipodi:nodetypes="sssss"
         id="path17-4" />
    </marker>
    <marker
       style="overflow:visible"
       id="Dot-0-0"
       refX="0"
       refY="0"
       orient="auto"
       inkscape:stockid="Dot"
       markerWidth="0.30000001"
       markerHeight="0.30000001"
       viewBox="0 0 1 1"
       inkscape:isstock="true"
       inkscape:collect="always"
       preserveAspectRatio="xMidYMid">
      <path
         transform="scale(0.5)"
         style="fill:context-stroke;fill-rule:evenodd;stroke:none"
         d="M 5,0 C 5,2.76 2.76,5 0,5 -2.76,5 -5,2.76 -5,0 c 0,-2.76 2.3,-5 5,-5 2.76,0 5,2.24 5,5 z"
         sodipodi:nodetypes="sssss"
         id="path17-4-5" />
    </marker>
    <marker
       style="overflow:visible"
       id="marker5-4"
       refX="0"
       refY="0"
       orient="auto"
       inkscape:stockid="Dot"
       markerWidth="0.30000001"
       markerHeight="0.30000001"
       viewBox="0 0 1 1"
       inkscape:isstock="true"
       inkscape:collect="always"
       preserveAspectRatio="xMidYMid">
      <path
         transform="scale(0.5)"
         style="fill:context-stroke;fill-rule:evenodd;stroke:none"
         d="M 5,0 C 5,2.76 2.76,5 0,5 -2.76,5 -5,2.76 -5,0 c 0,-2.76 2.3,-5 5,-5 2.76,0 5,2.24 5,5 z"
         sodipodi:nodetypes="sssss"
         id="path5-5" />
    </marker>
    <marker
       style="overflow:visible"
       id="Dot-0-7"
       refX="0"
       refY="0"
       orient="auto"
       inkscape:stockid="Dot"
       markerWidth="0.30000001"
       markerHeight="0.30000001"
       viewBox="0 0 1 1"
       inkscape:isstock="true"
       inkscape:collect="always"
       preserveAspectRatio="xMidYMid">
      <path
         transform="scale(0.5)"
         style="fill:context-stroke;fill-rule:evenodd;stroke:none"
         d="M 5,0 C 5,2.76 2.76,5 0,5 -2.76,5 -5,2.76 -5,0 c 0,-2.76 2.3,-5 5,-5 2.76,0 5,2.24 5,5 z"
         sodipodi:nodetypes="sssss"
         id="path17-4-3" />
    </marker>
    <marker
       style="overflow:visible"
       id="marker5-2"
       refX="0"
       refY="0"
       orient="auto"
       inkscape:stockid="Dot"
       markerWidth="0.30000001"
       markerHeight="0.30000001"
       viewBox="0 0 1 1"
       inkscape:isstock="true"
       inkscape:collect="always"
       preserveAspectRatio="xMidYMid">
      <path
         transform="scale(0.5)"
         style="fill:context-stroke;fill-rule:evenodd;stroke:none"
         d="M 5,0 C 5,2.76 2.76,5 0,5 -2.76,5 -5,2.76 -5,0 c 0,-2.76 2.3,-5 5,-5 2.76,0 5,2.24 5,5 z"
         sodipodi:nodetypes="sssss"
         id="path5-3" />
    </marker>
    <marker
       style="overflow:visible"
       id="Dot-0-9"
       refX="0"
       refY="0"
       orient="auto"
       inkscape:stockid="Dot"
       markerWidth="0.30000001"
       markerHeight="0.30000001"
       viewBox="0 0 1 1"
       inkscape:isstock="true"
       inkscape:collect="always"
       preserveAspectRatio="xMidYMid">
      <path
         transform="scale(0.5)"
         style="fill:context-stroke;fill-rule:evenodd;stroke:none"
         d="M 5,0 C 5,2.76 2.76,5 0,5 -2.76,5 -5,2.76 -5,0 c 0,-2.76 2.3,-5 5,-5 2.76,0 5,2.24 5,5 z"
         sodipodi:nodetypes="sssss"
         id="path17-4-35" />
    </marker>
    <marker
       style="overflow:visible"
       id="marker5-9"
       refX="0"
       refY="0"
       orient="auto"
       inkscape:stockid="Dot"
       markerWidth="0.30000001"
       markerHeight="0.30000001"
       viewBox="0 0 1 1"
       inkscape:isstock="true"
       inkscape:collect="always"
       preserveAspectRatio="xMidYMid">
      <path
         transform="scale(0.5)"
         style="fill:context-stroke;fill-rule:evenodd;stroke:none"
         d="M 5,0 C 5,2.76 2.76,5 0,5 -2.76,5 -5,2.76 -5,0 c 0,-2.76 2.3,-5 5,-5 2.76,0 5,2.24 5,5 z"
         sodipodi:nodetypes="sssss"
         id="path5-56" />
    </marker>
    <marker
       style="overflow:visible"
       id="Dot-0-7-8"
       refX="0"
       refY="0"
       orient="auto"
       inkscape:stockid="Dot"
       markerWidth="0.30000001"
       markerHeight="0.30000001"
       viewBox="0 0 1 1"
       inkscape:isstock="true"
       inkscape:collect="always"
       preserveAspectRatio="xMidYMid">
      <path
         transform="scale(0.5)"
         style="fill:context-stroke;fill-rule:evenodd;stroke:none"
         d="M 5,0 C 5,2.76 2.76,5 0,5 -2.76,5 -5,2.76 -5,0 c 0,-2.76 2.3,-5 5,-5 2.76,0 5,2.24 5,5 z"
         sodipodi:nodetypes="sssss"
         id="path17-4-3-8" />
    </marker>
    <marker
       style="overflow:visible"
       id="marker5-2-7"
       refX="0"
       refY="0"
       orient="auto"
       inkscape:stockid="Dot"
       markerWidth="0.30000001"
       markerHeight="0.30000001"
       viewBox="0 0 1 1"
       inkscape:isstock="true"
       inkscape:collect="always"
       preserveAspectRatio="xMidYMid">
      <path
         transform="scale(0.5)"
         style="fill:context-stroke;fill-rule:evenodd;stroke:none"
         d="M 5,0 C 5,2.76 2.76,5 0,5 -2.76,5 -5,2.76 -5,0 c 0,-2.76 2.3,-5 5,-5 2.76,0 5,2.24 5,5 z"
         sodipodi:nodetypes="sssss"
         id="path5-3-4" />
    </marker>
    <marker
       style="overflow:visible"
       id="Dot-0-0-8"
       refX="0"
       refY="0"
       orient="auto"
       inkscape:stockid="Dot"
       markerWidth="0.30000001"
       markerHeight="0.30000001"
       viewBox="0 0 1 1"
       inkscape:isstock="true"
       inkscape:collect="always"
       preserveAspectRatio="xMidYMid">
      <path
         transform="scale(0.5)"
         style="fill:context-stroke;fill-rule:evenodd;stroke:none"
         d="M 5,0 C 5,2.76 2.76,5 0,5 -2.76,5 -5,2.76 -5,0 c 0,-2.76 2.3,-5 5,-5 2.76,0 5,2.24 5,5 z"
         sodipodi:nodetypes="sssss"
         id="path17-4-5-5" />
    </marker>
    <marker
       style="overflow:visible"
       id="marker5-4-9"
       refX="0"
       refY="0"
       orient="auto"
       inkscape:stockid="Dot"
       markerWidth="0.30000001"
       markerHeight="0.30000001"
       viewBox="0 0 1 1"
       inkscape:isstock="true"
       inkscape:collect="always"
       preserveAspectRatio="xMidYMid">
      <path
         transform="scale(0.5)"
         style="fill:context-stroke;fill-rule:evenodd;stroke:none"
         d="M 5,0 C 5,2.76 2.76,5 0,5 -2.76,5 -5,2.76 -5,0 c 0,-2.76 2.3,-5 5,-5 2.76,0 5,2.24 5,5 z"
         sodipodi:nodetypes="sssss"
         id="path5-5-6" />
    </marker>
    <marker
       style="overflow:visible"
       id="Dot-0-7-2"
       refX="0"
       refY="0"
       orient="auto"
       inkscape:stockid="Dot"
       markerWidth="0.30000001"
       markerHeight="0.30000001"
       viewBox="0 0 1 1"
       inkscape:isstock="true"
       inkscape:collect="always"
       preserveAspectRatio="xMidYMid">
      <path
         transform="scale(0.5)"
         style="fill:context-stroke;fill-rule:evenodd;stroke:none"
         d="M 5,0 C 5,2.76 2.76,5 0,5 -2.76,5 -5,2.76 -5,0 c 0,-2.76 2.3,-5 5,-5 2.76,0 5,2.24 5,5 z"
         sodipodi:nodetypes="sssss"
         id="path17-4-3-6" />
    </marker>
    <marker
       style="overflow:visible"
       id="marker5-2-3"
       refX="0"
       refY="0"
       orient="auto"
       inkscape:stockid="Dot"
       markerWidth="0.30000001"
       markerHeight="0.30000001"
       viewBox="0 0 1 1"
       inkscape:isstock="true"
       inkscape:collect="always"
       preserveAspectRatio="xMidYMid">
      <path
         transform="scale(0.5)"
         style="fill:context-stroke;fill-rule:evenodd;stroke:none"
         d="M 5,0 C 5,2.76 2.76,5 0,5 -2.76,5 -5,2.76 -5,0 c 0,-2.76 2.3,-5 5,-5 2.76,0 5,2.24 5,5 z"
         sodipodi:nodetypes="sssss"
         id="path5-3-0" />
    </marker>
    <marker
       style="overflow:visible"
       id="Dot-0-9-0"
       refX="0"
       refY="0"
       orient="auto"
       inkscape:stockid="Dot"
       markerWidth="0.30000001"
       markerHeight="0.30000001"
       viewBox="0 0 1 1"
       inkscape:isstock="true"
       inkscape:collect="always"
       preserveAspectRatio="xMidYMid">
      <path
         transform="scale(0.5)"
         style="fill:context-stroke;fill-rule:evenodd;stroke:none"
         d="M 5,0 C 5,2.76 2.76,5 0,5 -2.76,5 -5,2.76 -5,0 c 0,-2.76 2.3,-5 5,-5 2.76,0 5,2.24 5,5 z"
         sodipodi:nodetypes="sssss"
         id="path17-4-35-5" />
    </marker>
    <marker
       style="overflow:visible"
       id="marker5-9-1"
       refX="0"
       refY="0"
       orient="auto"
       inkscape:stockid="Dot"
       markerWidth="0.30000001"
       markerHeight="0.30000001"
       viewBox="0 0 1 1"
       inkscape:isstock="true"
       inkscape:collect="always"
       preserveAspectRatio="xMidYMid">
      <path
         transform="scale(0.5)"
         style="fill:context-stroke;fill-rule:evenodd;stroke:none"
         d="M 5,0 C 5,2.76 2.76,5 0,5 -2.76,5 -5,2.76 -5,0 c 0,-2.76 2.3,-5 5,-5 2.76,0 5,2.24 5,5 z"
         sodipodi:nodetypes="sssss"
         id="path5-56-7" />
    </marker>
  </defs>
  <g
     inkscape:label="Layer 1"
     inkscape:groupmode="layer"
     id="layer1"
     style="display:inline">
    <rect
       style="opacity:1;fill:#cbcbcb;fill-opacity:1;stroke:#585858;stroke-width:4;stroke-dasharray:none;stroke-opacity:1"
       id="rect1"
       width="52"
       height="52"
       x="6"
       y="6"
       rx="1" />
  </g>
  <g
     inkscape:groupmode="layer"
     id="layer7"
     inkscape:label="NonUniformCurve"
     style="display:none">
    <path
       style="display:inline;fill:none;fill-opacity:1;stroke:#0010b1;stroke-width:5;stroke-linecap:round;stroke-dasharray:none;stroke-opacity:1;marker-start:url(#Dot-0-0-8);marker-mid:url(#marker5-2-7);marker-end:url(#marker5-4-9)"
       d="m 14.634532,44.451019 c 5.103634,1.273407 8.333095,-2.218941 16.564525,7.008002 6.967627,-10.416493 13.913689,-7.542894 18.739868,-6.041762"
       id="path4-3-5-7"
       sodipodi:nodetypes="ccc" />
    <path
       style="display:inline;fill:none;fill-opacity:1;stroke:#f30000;stroke-width:5;stroke-linecap:round;stroke-dasharray:none;stroke-opacity:1;marker-start:url(#Dot-0-7-2);marker-mid:url(#marker5-2-7);marker-end:url(#marker5-2-3)"
       d="m 14.036074,26.458916 c 6.167527,-2.680376 4.247054,-9.05403 12.436266,-12.620623 3.254106,-1.41724 15.120401,7.32575 21.232978,4.655482"
       id="path4-3-1-0"
       sodipodi:nodetypes="csc" />
    <path
       style="display:inline;fill:none;fill-opacity:1;stroke:#009e09;stroke-width:5;stroke-linecap:round;stroke-dasharray:none;stroke-opacity:1;marker-start:url(#Dot-0-9-0);marker-mid:url(#marker5-2-7);marker-end:url(#marker5-9-1)"
       d="m 14.076094,33.95616 21.27591,2.31882 12.133195,-6.815471"
       id="path4-3-7-7"
       sodipodi:nodetypes="ccc" />
  </g>
  <g
     inkscape:groupmode="layer"
     id="layer6"
     inkscape:label="UniformCurve"
     style="display:none">
    <path
       style="display:inline;fill:none;fill-opacity:1;stroke:#f30000;stroke-width:5;stroke-linecap:round;stroke-dasharray:none;stroke-opacity:1;marker-start:url(#Dot-0-7-8);marker-mid:url(#marker5-2-7);marker-end:url(#marker5-2-7)"
       d="m 15.434909,34.699901 c 9.499617,-9.167078 12.62375,-9.313938 16.632818,-9.31215 3.607055,0.0016 12.918587,1.451923 17.333726,9.869602"
       id="path4-3-1-1"
       sodipodi:nodetypes="csc" />
  </g>
  <g
     inkscape:groupmode="layer"
     id="layer5"
     inkscape:label="NonUniformRange"
     style="display:none">
    <path
       style="display:inline;fill:none;fill-opacity:1;stroke:#0010b1;stroke-width:5;stroke-linecap:round;stroke-dasharray:none;stroke-opacity:1;marker-start:url(#Dot-0-0);marker-end:url(#marker5-4)"
       d="m 17.432292,44.130003 c 29.135415,2.452741 0,0 29.135415,2.452741"
       id="path4-3-5"
       sodipodi:nodetypes="cc" />
    <path
       style="display:inline;fill:none;fill-opacity:1;stroke:#f30000;stroke-width:5;stroke-linecap:round;stroke-dasharray:none;stroke-opacity:1;marker-start:url(#Dot-0-7);marker-end:url(#marker5-2)"
       d="M 17.093972,25.902549 C 25.712259,22.157086 25.068496,22.4717 46.563851,13.081494"
       id="path4-3-1"
       sodipodi:nodetypes="cc" />
    <path
       style="display:inline;fill:none;fill-opacity:1;stroke:#009e09;stroke-width:5;stroke-linecap:round;stroke-dasharray:none;stroke-opacity:1;marker-start:url(#Dot-0-9);marker-end:url(#marker5-9)"
       d="m 17.096829,35.716245 c 29.804341,-7.43249 0,0 29.804341,-7.43249"
       id="path4-3-7"
       sodipodi:nodetypes="cc" />
  </g>
  <g
     inkscape:groupmode="layer"
     id="layer4"
     inkscape:label="UniformRange"
     style="display:none">
    <path
       style="display:inline;fill:none;fill-opacity:1;stroke:#f30000;stroke-width:5;stroke-linecap:round;stroke-dasharray:none;stroke-opacity:1;marker-start:url(#Dot-0);marker-end:url(#marker5)"
       d="M 17.262679,38.410525 C 25.880966,34.665062 25.237203,34.979676 46.732557,25.58947"
       id="path4-3"
       sodipodi:nodetypes="cc" />
  </g>
  <g
     inkscape:groupmode="layer"
     id="layer3"
     inkscape:label="NonUniformConstant"
     style="display:inline">
    <path
       style="display:inline;fill:none;fill-opacity:1;stroke:#f30000;stroke-width:5;stroke-linecap:round;stroke-dasharray:none;stroke-opacity:1;marker-start:url(#Dot-4)"
       d="m 16.910331,21.564087 0.04519,0.0011 c 9.202182,0.116338 21.375485,-0.161763 31.134164,0.07324"
       id="path4-4"
       sodipodi:nodetypes="ccc" />
    <path
       style="display:inline;fill:none;fill-opacity:1;stroke:#0010b1;stroke-width:5;stroke-linecap:round;stroke-dasharray:none;stroke-opacity:1;marker-start:url(#Dot-4-5)"
       d="m 16.910331,42.435875 0.04519,0.0011 c 9.202182,0.116338 21.375485,-0.161763 31.134164,0.07324"
       id="path4-4-8"
       sodipodi:nodetypes="ccc" />
    <path
       style="display:inline;fill:none;fill-opacity:1;stroke:#009e09;stroke-width:5;stroke-linecap:round;stroke-dasharray:none;stroke-opacity:1;marker-start:url(#Dot-48)"
       d="m 16.910331,31.999981 0.04519,0.0011 c 9.202182,0.116338 21.375485,-0.161763 31.134164,0.07324"
       id="path4-1"
       sodipodi:nodetypes="ccc"
       inkscape:label="path4-1" />
  </g>
  <g
     inkscape:groupmode="layer"
     id="layer2"
     inkscape:label="UniformConstant"
     style="display:none"
     transform="translate(2.4190622e-7,0.67197606)">
    <path
       style="opacity:1;fill:none;fill-opacity:1;stroke:#ff0000;stroke-width:5;stroke-linecap:round;stroke-dasharray:none;stroke-opacity:1;marker-start:url(#Dot)"
       d="m 16.910331,31.328005 0.04519,0.0011 c 9.202182,0.116338 21.375485,-0.161763 31.134164,0.07324"
       id="path4"
       sodipodi:nodetypes="ccc" />
  </g>
</svg>
