<?xml version="1.0" encoding="UTF-8" standalone="no"?>
<svg
   width="6"
   height="16"
   viewBox="0 0 6 16"
   fill="none"
   version="1.1"
   id="svg16"
   sodipodi:docname="TypeIconPill.svg"
   inkscape:version="1.2.2 (732a01da63, 2022-12-09)"
   xmlns:inkscape="http://www.inkscape.org/namespaces/inkscape"
   xmlns:sodipodi="http://sodipodi.sourceforge.net/DTD/sodipodi-0.dtd"
   xmlns="http://www.w3.org/2000/svg"
   xmlns:svg="http://www.w3.org/2000/svg">
  <defs
     id="defs20" />
  <sodipodi:namedview
     id="namedview18"
     pagecolor="#ffffff"
     bordercolor="#000000"
     borderopacity="0.25"
     inkscape:showpageshadow="2"
     inkscape:pageopacity="0.0"
     inkscape:pagecheckerboard="0"
     inkscape:deskcolor="#d1d1d1"
     showgrid="true"
     inkscape:zoom="102.7"
     inkscape:cx="5.6280429"
     inkscape:cy="8.3544304"
     inkscape:window-width="3840"
     inkscape:window-height="2004"
     inkscape:window-x="-11"
     inkscape:window-y="796"
     inkscape:window-maximized="1"
     inkscape:current-layer="svg16">
    <inkscape:grid
       type="xygrid"
       id="grid6782" />
  </sodipodi:namedview>
  <path
     d="M 4.2795521,2.8250756 V 13.160519 c 0.016894,0.22269 -0.00164,0.44763 -0.054398,0.66011 -0.05275,0.21247 -0.1385369,0.40769 -0.2517333,0.57288 -0.1131964,0.16519 -0.251261,0.29663 -0.4051551,0.38573 -0.153894,0.08909 -0.3201548,0.13383 -0.487907,0.13128 h -0.269731 c -0.1677447,0.0025 -0.3340055,-0.04219 -0.4878995,-0.13128 -0.153894,-0.0891 -0.2919587,-0.22054 -0.4051551,-0.38573 -0.1131964,-0.16519 -0.1989837,-0.36041 -0.2517333,-0.57288 -0.052757,-0.21248 -0.071294,-0.43742 -0.054406,-0.66011 V 2.8250756 c -0.016888,-0.22269 0.00165,-0.44763 0.054406,-0.6601 0.05275,-0.21247 0.1385369,-0.40769 0.2517333,-0.57288 0.1131964,-0.16519 0.2512611,-0.2966399 0.4051551,-0.3857299 0.153894,-0.08909 0.3201548,-0.13383 0.4878995,-0.13129 h 0.269731 c 0.1677522,-0.00254 0.334013,0.0422 0.487907,0.13129 0.1538941,0.08909 0.2919587,0.2205399 0.4051551,0.3857299 0.1131964,0.16519 0.1989838,0.36041 0.2517333,0.57288 0.052757,0.21247 0.071292,0.43741 0.054398,0.6601 z"
     fill="white"
     id="path6"
     style="fill:#ffffff;fill-opacity:1;stroke-width:0.865734"
     sodipodi:nodetypes="cccsccccsccccssccsscc" />
</svg>
