<svg width="20" height="20" viewBox="0 0 20 20" fill="none" xmlns="http://www.w3.org/2000/svg">
<g clip-path="url(#clip0_15105_17940)">
<path fill-rule="evenodd" clip-rule="evenodd" d="M5.5625 6.0485L8.32094 5.00075L8.99578 2.1875L10.8685 4.42325L13.8125 4.19225L12.2097 6.626L13.357 9.29075L10.4973 8.54825L8.25345 10.4375L8.08474 7.55L5.5625 6.0485Z" fill="white"/>
<path opacity="0.5" d="M2.1875 13.8125C2.31889 12.4056 3.04587 10.8039 3.68746 9.545C4.22203 8.7076 4.92428 7.99002 5.74996 7.4375L7.05496 8.2475L7.12246 9.395C6.25026 9.71768 5.43695 10.1813 4.71496 10.7675C3.79689 11.544 2.71886 12.7339 2.1875 13.8125Z" fill="white"/>
</g>
<path opacity="0.5" d="M1 1H4V0H0V3H1V1Z" fill="white"/>
<path opacity="0.5" d="M15 1V3H16V0H12V1H15Z" fill="white"/>
<path d="M4.5 19.5032C13 18.2032 15.3 14.4032 15.3 14.4032L13.3 12.4032L19.7 11.3032L18.6 17.7032L16.6 15.7032C16.6 15.6032 13.4 19.4032 4.5 19.5032Z" fill="white"/>
<path opacity="0.5" d="M1 15V13H0V16H4V15H1Z" fill="white"/>
<defs>
<clipPath id="clip0_15105_17940">
<rect width="12" height="12" fill="white" transform="translate(2 2)"/>
</clipPath>
</defs>
</svg>
